<mxfile host="app.diagrams.net" modified="2021-03-04T09:03:30.961Z" agent="5.0 (Windows NT 10.0; Win64; x64) AppleWebKit/537.36 (KHTML, like Gecko) Chrome/88.0.4324.150 Safari/537.36 OPR/74.0.3911.160" etag="sXaWajOi3Sm_Hjc4VNdA" version="14.4.3" type="github">
  <diagram id="oPz1rC21Pdz7JXNOBv5h" name="Page-1">
    <mxGraphModel dx="998" dy="548" grid="1" gridSize="10" guides="1" tooltips="1" connect="1" arrows="1" fold="1" page="1" pageScale="1" pageWidth="827" pageHeight="1169" math="0" shadow="0">
      <root>
        <mxCell id="0" />
        <mxCell id="1" parent="0" />
        <mxCell id="_7aLPu9ptkFJ5N0X6K_4-12" value="" style="strokeWidth=1;shadow=0;dashed=0;align=center;html=1;shape=mxgraph.mockup.containers.browserWindow;rSize=0;strokeColor2=#008cff;strokeColor3=#c4c4c4;mainText=,;recursiveResize=0;" parent="1" vertex="1">
          <mxGeometry x="19" y="20" width="801" height="540" as="geometry" />
        </mxCell>
        <mxCell id="_7aLPu9ptkFJ5N0X6K_4-13" value="Page 1" style="strokeWidth=1;shadow=0;dashed=0;align=center;html=1;shape=mxgraph.mockup.containers.anchor;fontSize=17;fontColor=#666666;align=left;" parent="_7aLPu9ptkFJ5N0X6K_4-12" vertex="1">
          <mxGeometry x="60" y="12" width="110" height="26" as="geometry" />
        </mxCell>
        <mxCell id="_7aLPu9ptkFJ5N0X6K_4-14" value="https://www.draw.io" style="strokeWidth=1;shadow=0;dashed=0;align=center;html=1;shape=mxgraph.mockup.containers.anchor;rSize=0;fontSize=17;fontColor=#666666;align=left;" parent="_7aLPu9ptkFJ5N0X6K_4-12" vertex="1">
          <mxGeometry x="130" y="60" width="250" height="26" as="geometry" />
        </mxCell>
        <mxCell id="GeccFKpZmWEFlLuhXC72-1" value="" style="rounded=0;whiteSpace=wrap;html=1;shadow=0;sketch=0;strokeColor=#000000;strokeWidth=2;" vertex="1" parent="1">
          <mxGeometry x="50" y="160" width="740" height="370" as="geometry" />
        </mxCell>
        <mxCell id="_7aLPu9ptkFJ5N0X6K_4-2" value="" style="strokeWidth=2;shadow=0;dashed=0;align=center;html=1;shape=mxgraph.mockup.text.textBox;fontColor=#666666;align=left;fontSize=17;spacingLeft=4;spacingTop=-3;mainText=" parent="1" vertex="1">
          <mxGeometry x="50" y="160" width="270" height="180" as="geometry" />
        </mxCell>
        <mxCell id="_7aLPu9ptkFJ5N0X6K_4-3" value="" style="strokeWidth=2;shadow=0;dashed=0;align=center;html=1;shape=mxgraph.mockup.text.textBox;fontColor=#666666;align=left;fontSize=17;spacingLeft=4;spacingTop=-3;mainText=" parent="1" vertex="1">
          <mxGeometry x="520" y="160" width="270" height="180" as="geometry" />
        </mxCell>
        <mxCell id="_7aLPu9ptkFJ5N0X6K_4-4" value="&lt;font color=&quot;#000000&quot;&gt;Расшифровать&lt;/font&gt;" style="shape=ellipse;fillColor=#eeeeee;gradientColor=#cccccc;html=1;align=left;spacingLeft=4;fontSize=17;fontColor=#666666;labelPosition=right;shadow=0;snapToPoint=0;autosize=0;sketch=0;strokeWidth=1;" parent="1" vertex="1">
          <mxGeometry x="260" y="473.75" width="15" height="15" as="geometry" />
        </mxCell>
        <mxCell id="_7aLPu9ptkFJ5N0X6K_4-5" value="&lt;font color=&quot;#000000&quot;&gt;Зашифровать&lt;/font&gt;" style="shape=ellipse;fillColor=#eeeeee;gradientColor=#cccccc;html=1;align=left;spacingLeft=4;fontSize=17;fontColor=#666666;labelPosition=right;shadow=0;snapToPoint=0;autosize=0;dropTarget=0;strokeWidth=1;" parent="1" vertex="1">
          <mxGeometry x="80" y="473.75" width="15" height="15" as="geometry" />
        </mxCell>
        <mxCell id="_7aLPu9ptkFJ5N0X6K_4-6" value="" style="strokeWidth=2;shadow=0;dashed=0;align=center;html=1;shape=mxgraph.mockup.text.textBox;fontColor=#666666;align=left;fontSize=17;spacingLeft=4;spacingTop=-3;mainText=" parent="1" vertex="1">
          <mxGeometry x="210" y="390" width="430" height="30" as="geometry" />
        </mxCell>
        <mxCell id="_7aLPu9ptkFJ5N0X6K_4-7" value="&lt;font style=&quot;font-size: 15px&quot;&gt;Преобразовать&lt;/font&gt;" style="strokeWidth=1;shadow=0;dashed=0;align=center;html=1;shape=mxgraph.mockup.buttons.button;strokeColor=#666666;fontColor=#ffffff;mainText=;buttonStyle=round;fontSize=17;fontStyle=1;whiteSpace=wrap;fillColor=#008CFF;" parent="1" vertex="1">
          <mxGeometry x="630" y="467.5" width="130" height="27.5" as="geometry" />
        </mxCell>
        <mxCell id="_7aLPu9ptkFJ5N0X6K_4-8" value="" style="endArrow=open;endFill=1;endSize=12;html=1;" parent="1" edge="1">
          <mxGeometry width="160" relative="1" as="geometry">
            <mxPoint x="375" y="260" as="sourcePoint" />
            <mxPoint x="465" y="260.5" as="targetPoint" />
            <Array as="points">
              <mxPoint x="465" y="260.5" />
            </Array>
          </mxGeometry>
        </mxCell>
        <mxCell id="_7aLPu9ptkFJ5N0X6K_4-9" value="&lt;font style=&quot;font-size: 17px&quot;&gt;Введите ключ&lt;/font&gt;" style="text;html=1;strokeColor=none;fillColor=none;align=center;verticalAlign=middle;whiteSpace=wrap;rounded=0;" parent="1" vertex="1">
          <mxGeometry x="80" y="395" width="115" height="20" as="geometry" />
        </mxCell>
        <mxCell id="GeccFKpZmWEFlLuhXC72-2" value="" style="ellipse;whiteSpace=wrap;html=1;aspect=fixed;shadow=0;sketch=0;strokeWidth=1;fillColor=#008CFF;strokeColor=none;" vertex="1" parent="1">
          <mxGeometry x="82.5" y="476.25" width="10" height="10" as="geometry" />
        </mxCell>
      </root>
    </mxGraphModel>
  </diagram>
</mxfile>
